# xmcd CD database file
#
# Track frame offsets:
#	150
#	15116
#	37705
#	51003
#	62744
#	75813
#	94304
#	110060
#	126915
#	148458
#	173136
#	197175
#	221055
#
# Disc length: 3266 seconds
#
# Revision: 1
# Processed by: cddbd v1.5.2PL0 Copyright (c) Steve Scherf et al.
# Submitted via: CDex 1.70beta3
#
DISCID=b00cc00d
DTITLE=Xuse - Xuse [VC] vol4
DYEAR=2009
DGENRE=Game
TTITLE0=ツェナ・クラウスィ - 風に乗って行こう
TTITLE1=ツェナ・クラウスィ - 風と水と清らかな空
TTITLE2=ヘリオン・ラスフォルト - 花占い
TTITLE3=ニムントール・ラスフォルト - コトコトおなべ
TTITLE4=ツェナ・クラウスィ - 剣士軍歌
TTITLE5=榊原ゆい - Step Forward ～君だけの星
TTITLE6=山本直 with スピリット隊 - 君にyell
TTITLE7=大城恭子 - Flowery kiss
TTITLE8=榊原ゆい - 虹色恋心
TTITLE9=川村ゆみ - 聖なるかな
TTITLE10=川村ゆみ - オリハルコンの名の下に
TTITLE11=川村ゆみ - 永遠のアセリア 聖なるかなアレンジ
TTITLE12=川村ゆみ - 遠くへ
EXTD=YEAR: 2009
EXTT0=
EXTT1=
EXTT2=
EXTT3=
EXTT4=
EXTT5=
EXTT6=
EXTT7=
EXTT8=
EXTT9=
EXTT10=
EXTT11=
EXTT12=
PLAYORDER=
